<svg height="150pt" viewBox="0 100 511.99422 150" width="150pt" xmlns="http://www.w3.org/2000/svg"><path d="m307.105469 182.429688c0 56.558593-45.851563 102.410156-102.410157 102.410156-56.5625 0-102.414062-45.851563-102.414062-102.410156 0-56.5625 45.851562-102.414063 102.414062-102.414063 56.558594 0 102.410157 45.851563 102.410157 102.414063zm0 0" fill="#f3af3e"/><path d="m150.613281 170.105469-16.640625-3.804688c7.515625-32.984375 36.832032-56.390625 70.660156-56.421875h.070313v17.070313c-9.796875.117187-19.402344 2.714843-27.925781 7.550781-13.320313 7.683594-22.808594 20.597656-26.164063 35.605469zm0 0" fill="#da922a"/><path d="m166.015625 243.808594c-9.875-6.242188-18.105469-14.769532-23.988281-24.863282l14.738281-8.59375c4.472656 7.738282 10.769531 14.261719 18.339844 19.007813zm0 0" fill="#da922a"/><path d="m260.832031 67.226562 38.035157-66.730468 14.828124 8.453125-38.035156 66.730469zm0 0" fill="#fbd699"/><path d="m94.09375 10.164062 14.738281-8.613281 38.773438 66.304688-14.738281 8.617187zm0 0" fill="#fbd699"/><path d="m0 175.261719 76.808594-.414063.089844 17.066406-76.804688.414063zm0 0" fill="#fbd699"/><path d="m96.011719 356.394531 38.035156-66.730469 14.832031 8.453126-38.035156 66.730468zm0 0" fill="#fbd699"/><path d="m422.324219 245.011719h-8.53125c0-51.847657-42.03125-93.878907-93.878907-93.878907-51.847656 0-93.875 42.03125-93.875 93.878907 0 .980469.117188 1.925781.144532 2.890625-43.179688 11.855468-68.574219 56.46875-56.71875 99.644531 9.636718 35.113281 41.5 59.492187 77.910156 59.613281h174.949219c44.777343 0 81.074219-36.296875 81.074219-81.074218 0-44.777344-36.296876-81.074219-81.074219-81.074219zm0 0" fill="#b3e4e8"/><g fill="#f3af3e"><path d="m198.148438 21.695312h17.070312v34.136719h-17.070312zm0 0"/><path d="m61.902344 110.019531 8.546875-14.773437 29.542969 17.09375-8.546876 14.773437zm0 0"/><path d="m61.769531 257.371094 29.582031-17.035156 8.515626 14.792968-29.582032 17.035156zm0 0"/><path d="m313.199219 112.554688 29.582031-17.035157 8.515625 14.792969-29.582031 17.035156zm0 0"/></g><path d="m400.988281 364.488281h34.136719v17.070313h-34.136719zm0 0" fill="#6fbbc6"/><path d="m366.851562 364.488281h17.070313v17.070313h-17.070313zm0 0" fill="#6fbbc6"/><path d="m176.820312 134.5c8.464844-4.9375 18.085938-7.542969 27.882813-7.554688h.058594v-17.066406c-12.820313.140625-25.394531 3.539063-36.542969 9.875-17.328125 10.136719-29.699219 26.980469-34.195312 46.542969l16.640624 3.808594c3.351563-15.003907 12.839844-27.917969 26.15625-35.605469zm0 0"/><path d="m156.824219 210.351562-14.738281 8.59375c5.882812 10.097657 14.113281 18.628907 23.992187 24.871094l9.085937-14.449218c-7.566406-4.753907-13.863281-11.28125-18.339843-19.015626zm0 0"/><path d="m260.890625 67.234375 38.035156-66.730469 14.828125 8.453125-38.035156 66.730469zm0 0"/><path d="m94.152344 10.164062 14.734375-8.613281 38.765625 66.308594-14.734375 8.613281zm0 0"/><path d="m.0507812 175.261719 76.8085938-.414063.09375 17.066406-76.808594.414063zm0 0"/><path d="m96.070312 356.394531 38.035157-66.730469 14.828125 8.453126-38.035156 66.730468zm0 0"/><path d="m422.386719 236.476562h-.359375c-4.472656-56.140624-53.613282-98.027343-109.753906-93.554687-1.253907.097656-2.503907.222656-3.75.367187-21.578126-57.347656-85.558594-86.34375-142.910157-64.769531-57.347656 21.578125-86.34375 85.558594-64.769531 142.90625 11.4375 30.402344 35.625 54.265625 66.179688 65.289063-21.816407 44.339844-3.5625 97.96875 40.773437 119.785156 12.332031 6.070312 25.894531 9.214844 39.636719 9.195312h174.953125c49.488281 0 89.609375-40.121093 89.609375-89.609374 0-49.492188-40.121094-89.609376-89.609375-89.609376zm-298.699219-6.828124c-26.195312-44.742188-11.160156-102.25 33.585938-128.445313 44.742187-26.191406 102.246093-11.15625 128.441406 33.585937 2.230468 3.804688 4.1875 7.765626 5.859375 11.847657-42.574219 12.359375-72.390625 50.671875-73.917969 94.976562-16.398438 5.8125-30.746094 16.28125-41.285156 30.125-22.214844-6.9375-41.03125-21.9375-52.742188-42.046875zm298.699219 168.976562h-174.953125c-40.039063.015625-72.507813-32.433594-72.523438-72.472656-.007812-32.753906 21.941406-61.449219 53.558594-70.003906l6.503906-1.757813-.339844-9.390625c.019532-47.132812 38.246094-85.324219 85.378907-85.304688 47.105469.019532 85.285156 38.203126 85.304687 85.304688v8.535156h17.070313c40.0625 0 72.539062 32.476563 72.539062 72.542969 0 40.0625-32.476562 72.539063-72.539062 72.539063zm0 0"/><path d="m198.207031 21.695312h17.070313v34.136719h-17.070313zm0 0"/><path d="m61.972656 110.015625 8.550782-14.773437 29.542968 17.101562-8.546875 14.769531zm0 0"/><path d="m61.820312 257.371094 29.585938-17.035156 8.515625 14.792968-29.582031 17.035156zm0 0"/><path d="m313.257812 112.574219 29.582032-17.035157 8.515625 14.792969-29.582031 17.035157zm0 0"/><path d="m401.050781 364.488281h34.136719v17.070313h-34.136719zm0 0"/><path d="m366.914062 364.488281h17.066407v17.070313h-17.066407zm0 0"/></svg>