<svg height="150pt" viewBox="0 100 512.00032 150" width="150pt" xmlns="http://www.w3.org/2000/svg"><path d="m428.089844 41.960938h-14.683594v-8.394532c0-13.902344-11.273438-25.175781-25.175781-25.175781-13.90625 0-25.175781 11.273437-25.175781 25.175781v8.394532h-8.394532c-13.902344 0-25.171875 11.269531-25.171875 25.171874 0 13.90625 11.269531 25.175782 25.171875 25.175782h73.429688c13.902344 0 25.175781-11.269532 25.175781-25.175782 0-13.902343-11.273437-25.171874-25.175781-25.171874zm0 0" fill="#a8d6da"/><path d="m159.554688 251.753906 41.957031-75.527344h151.050781l41.960938 151.054688 64.617187 9.363281c37.683594-114.457031-24.554687-237.792969-139.007813-275.476562-114.457031-37.683594-237.792968 24.554687-275.476562 139.011719-5.921875 17.980468-9.476562 36.660156-10.578125 55.558593zm0 0" fill="#ea6b65"/><path d="m159.554688 251.753906v-75.527344l109.09375-16.78125 67.132812 33.566407 87.769531 143.382812c37.53125-94.804687-8.894531-202.082031-103.699219-239.617187-94.800781-37.53125-202.082031 8.894531-239.613281 103.699218-6.863281 17.332032-11.058593 35.601563-12.449219 54.1875zm0 0" fill="#fbb540"/><path d="m159.554688 251.753906 25.175781-50.351562 67.132812-33.566406 92.308594 41.957031 8.390625 117.488281 34.238281 8.859375c37.402344-74.496094 7.328125-165.207031-67.167969-202.609375-74.496093-37.398438-165.207031-7.328125-202.609374 67.171875-8.304688 16.539063-13.496094 34.46875-15.3125 52.886719zm0 0" fill="#99d8aa"/><path d="m362.902344 306.628906c21.195312-61.328125-11.335938-128.222656-72.664063-149.417968-61.324219-21.195313-128.222656 11.339843-149.414062 72.664062-4.300781 12.433594-6.476563 25.503906-6.445313 38.664062 0 2.824219.101563 5.621094.300782 8.390626h33.769531c-4.695313-46.074219 28.847656-87.234376 74.925781-91.929688 46.074219-4.695312 87.230469 28.847656 91.925781 74.925781 1.429688 13.988281-.6875 28.113281-6.148437 41.070313zm0 0" fill="#69b0bb"/><path d="m42.070312 234.96875v-20.976562c.09375-30.125 24.589844-54.472657 54.714844-54.378907 25.203125.078125 47.074219 17.417969 52.898438 41.941407.496094 0 .976562-.152344 1.476562-.152344 18.539063 0 33.570313 15.03125 33.570313 33.566406 18.535156 0 33.566406 15.03125 33.566406 33.570312 0 18.535157-15.03125 33.566407-33.566406 33.566407h-142.660157c-18.539062 0-33.570312-15.03125-33.570312-33.566407 0-18.539062 15.03125-33.570312 33.570312-33.570312zm0 0" fill="#b8eaee"/><path d="m470.046875 293.710938h-25.171875v-12.585938c0-20.855469-16.910156-37.761719-37.765625-37.761719s-37.761719 16.90625-37.761719 37.761719v12.585938h-25.175781c-18.539063 0-33.566406 15.03125-33.566406 33.570312 0 18.535156 15.027343 33.566406 33.566406 33.566406h125.875c18.539063 0 33.570313-15.03125 33.570313-33.566406 0-18.539062-15.03125-33.570312-33.570313-33.570312zm0 0" fill="#c0f5f9"/><path d="m477.601562 286.085938c.839844-10.242188.992188-20.523438.453126-30.78125-3.320313-59.285157-29.929688-114.855469-74.039063-154.601563h24.074219c18.539062 0 33.566406-15.03125 33.566406-33.570313 0-18.535156-15.027344-33.566406-33.566406-33.566406h-6.292969c0-18.539062-15.03125-33.566406-33.566406-33.566406-18.539063 0-33.570313 15.027344-33.570313 33.566406-13.261718.101563-25.242187 7.953125-30.628906 20.074219-27.460938-9.214844-56.441406-13.050781-85.351562-11.296875-86.8125 5.324219-163.011719 59.640625-196.359376 139.96875-5.65625 9.597656-8.640624 20.535156-8.644531 31.679688v13.425781h-.058593c-22.707032 4.609375-37.382813 26.757812-32.769532 49.46875 3.976563 19.59375 21.226563 33.65625 41.222656 33.609375h142.660157c23.171875.015625 41.96875-18.757813 41.984375-41.929688.015625-20.230468-14.410156-37.589844-34.300782-41.285156-.242187-1.289062-.660156-2.515625-1.023437-3.765625 24.75-33.480469 71.953125-40.558594 105.429687-15.8125 25.808594 19.078125 36.707032 52.40625 27.160157 83.046875-20.253907 11.097656-27.675781 36.511719-16.578125 56.765625 7.355468 13.425781 21.460937 21.757813 36.769531 21.722656h125.875c23.152344.019531 41.933594-18.734375 41.953125-41.882812.015625-20.261719-14.464844-37.636719-34.398438-41.269531zm-122.941406-235.734376h8.394532c4.632812 0 8.390624-3.757812 8.390624-8.390624v-8.394532c0-9.269531 7.515626-16.78125 16.785157-16.78125s16.78125 7.511719 16.78125 16.78125v8.394532c0 4.632812 3.757812 8.390624 8.394531 8.390624h14.683594c9.269531 0 16.785156 7.515626 16.785156 16.78125 0 9.269532-7.515625 16.785157-16.785156 16.785157h-44.886719c-13.550781-9.695313-28.132813-17.855469-43.480469-24.335938 2.863282-5.628906 8.625-9.191406 14.9375-9.230469zm-115.039062 8.742188c115.667968-6.757812 214.914062 81.53125 221.675781 197.199219v.007812c.503906 9.671875.34375 19.367188-.480469 29.019531h-7.550781v-4.195312c-.003906-9.878906-3.199219-19.492188-9.105469-27.40625-8.097656-106.207031-100.757812-185.738281-206.964844-177.640625-54.765624 4.175781-105.15625 31.507813-138.523437 75.132813-.6875 0-1.359375-.160157-2.054687-.160157-7.089844.015625-14.125 1.234375-20.804688 3.609375 36.394531-55.988281 97.15625-91.4375 163.808594-95.566406zm136.179687 188.21875c-11.652343-68.449219-76.589843-114.496094-145.039062-102.84375-30.082031 5.121094-57.269531 21.003906-76.503907 44.691406-2.296874-5.417968-5.34375-10.480468-9.054687-15.046875 51.96875-58.988281 141.914063-64.675781 200.898437-12.707031 22.761719 20.050781 38.519532 46.847656 44.980469 76.484375-5.660156 2.109375-10.851562 5.3125-15.28125 9.421875zm31.78125-12.34375c-18.324219-85.929688-102.835937-140.738281-188.769531-122.417969-33.214844 7.082031-63.289062 24.605469-85.828125 50.007813-4.785156-3.359375-10.019531-6.03125-15.550781-7.929688 62.828125-74.253906 173.957031-83.519531 248.210937-20.691406 31.679688 26.808594 52.878907 63.941406 59.851563 104.851562-5.652344-2.46875-11.746094-3.765624-17.914063-3.820312zm-197.679687 33.570312c0 13.902344-11.269532 25.171876-25.171875 25.171876h-142.660157c-13.90625.023437-25.195312-11.226563-25.21875-25.128907-.019531-11.976562 8.394532-22.304687 20.125-24.707031 1.675782-.339844 3.382813-.511719 5.09375-.511719 4.632813 0 8.390626-3.757812 8.390626-8.394531v-20.976562c.09375-25.492188 20.835937-46.078126 46.328124-45.984376 21.300782.082032 39.78125 14.730469 44.722657 35.453126.917969 3.949218 4.535156 6.675781 8.585937 6.476562.359375-.003906.714844-.054688 1.0625-.144531 13.90625 0 25.175782 11.273437 25.175782 25.175781 0 4.636719 3.757812 8.394531 8.394531 8.394531 13.902343 0 25.171875 11.269531 25.171875 25.175781zm125.171875-39.945312c-22.050781-45.96875-77.1875-65.351562-123.152344-43.300781-11.144531 5.347656-21.101563 12.875-29.28125 22.144531-3.699219-4.273438-8.21875-7.753906-13.292969-10.238281 38.898438-45.761719 107.53125-51.320313 153.289063-12.421875 29.082031 24.722656 43.074219 62.882812 36.867187 100.542968h-15.332031c-.570313 0-1.097656.144532-1.679687.167969 3.695312-19.269531 1.09375-39.21875-7.417969-56.894531zm134.972656 123.859375h-125.875c-13.902344 0-25.175781-11.269531-25.175781-25.175781 0-13.902344 11.273437-25.171875 25.175781-25.171875h25.175781c4.632813 0 8.390625-3.757813 8.390625-8.394531v-12.585938c0-16.222656 13.152344-29.371094 29.371094-29.371094 16.222656 0 29.371094 13.148438 29.371094 29.371094v12.585938c0 4.636718 3.757812 8.394531 8.394531 8.394531h25.171875c13.90625 0 25.175781 11.269531 25.175781 25.171875 0 13.90625-11.269531 25.175781-25.175781 25.175781zm0 0"/></svg>