<svg height="150pt" viewBox="0 125 512.00037 150" width="150pt" xmlns="http://www.w3.org/2000/svg"><path d="m384.125 255.6875c0 103.539062-83.933594 187.472656-187.472656 187.472656-103.535156 0-187.472656-83.933594-187.472656-187.472656s83.9375-187.472656 187.472656-187.472656c103.539062 0 187.472656 83.933594 187.472656 187.472656zm0 0" fill="#fbb540"/><path d="m178.65625 69.269531c-41.867188 94.503907.800781 205.050781 95.300781 246.917969 29.527344 13.082031 61.941407 18.296875 94.082031 15.144531 41.871094-94.492187-.785156-205.039062-95.277343-246.910156-29.535157-13.089844-61.957031-18.308594-94.105469-15.152344zm0 0" fill="#da922a"/><path d="m435.253906 8.554688-11.65625 34.9375c-3.390625 10.191406-11.386718 18.1875-21.574218 21.578124l-34.941407 11.65625 34.085938 11.359376c10.6875 3.5625 18.921875 12.175781 22.003906 23.007812l12.082031 42.328125 12.101563-42.359375c3.089843-10.820312 11.316406-19.414062 21.984375-22.976562l34.085937-11.359376-34.9375-11.65625c-10.1875-3.390624-18.183593-11.386718-21.574219-21.578124zm0 0" fill="#fbb540"/><g fill="#ea9d2d"><path d="m460.820312 221.59375h17.042969v17.042969h-17.042969zm0 0"/><path d="m477.863281 144.898438h17.042969v17.042968h-17.042969zm0 0"/><path d="m426.734375 178.984375h17.042969v17.042969h-17.042969zm0 0"/></g><path d="m506.121094 68.640625-34.9375-11.648437c-7.636719-2.566407-13.628906-8.558594-16.191406-16.191407l-11.648438-34.9375c-1.472656-4.472656-6.285156-6.902343-10.757812-5.433593-2.570313.84375-4.589844 2.863281-5.433594 5.433593l-11.648438 34.9375c-2.566406 7.632813-8.558594 13.628907-16.191406 16.191407l-34.9375 11.648437c-4.472656 1.46875-6.90625 6.285156-5.4375 10.757813.847656 2.570312 2.863281 4.585937 5.4375 5.433593l34.085938 11.359375c7.992187 2.65625 14.164062 9.082032 16.496093 17.179688l12.101563 42.359375c1.285156 4.527343 5.996094 7.15625 10.523437 5.871093 2.84375-.808593 5.066407-3.03125 5.871094-5.871093l12.09375-42.351563c2.320313-8.117187 8.496094-14.566406 16.503906-17.230468l34.085938-11.359376c4.472656-1.46875 6.90625-6.285156 5.433593-10.757812-.84375-2.570312-2.859374-4.589844-5.433593-5.433594zm-39.457032 11.359375c-13.347656 4.445312-23.640624 15.191406-27.503906 28.71875l-3.90625 13.675781-3.910156-13.675781c-3.863281-13.527344-14.152344-24.273438-27.5-28.71875l-9.816406-3.273438 10.710937-3.570312c12.707031-4.269531 22.679688-14.246094 26.945313-26.953125l3.570312-10.695313 3.570313 10.703126c4.273437 12.703124 14.246093 22.675781 26.945312 26.945312l10.710938 3.570312zm0 0"/><path d="m460.820312 221.59375h17.042969v17.042969h-17.042969zm0 0"/><path d="m477.863281 144.898438h17.042969v17.042968h-17.042969zm0 0"/><path d="m426.734375 178.984375h17.042969v17.042969h-17.042969zm0 0"/><path d="m354.710938 139.785156c-63.980469-87.496094-186.777344-106.5625-274.277344-42.582031s-106.5625 186.777344-42.582032 274.277344c63.980469 87.5 186.777344 106.5625 274.277344 42.582031 28.160156-20.59375 50.324219-48.320312 64.210938-80.328125l.066406-.152344c27.679688-63.871093 19.421875-137.628906-21.695312-193.796875zm-130.847657-60.960937c97.527344 14.929687 164.484375 106.089843 149.554688 203.617187-2.132813 13.941406-5.910157 27.582032-11.25 40.632813-98.359375 8.046875-184.617188-65.164063-192.660157-163.523438-2.289062-27.984375 2.046876-56.113281 12.660157-82.109375 13.90625-1.15625 27.898437-.691406 41.695312 1.382813zm78.609375 321.175781c-79.617187 58.554688-191.628906 41.484375-250.183594-38.132812-58.558593-79.617188-41.484374-191.628907 38.132813-250.1875 21.511719-15.824219 46.296875-26.628907 72.53125-31.628907-35.863281 102.03125 17.777344 213.816407 119.808594 249.679688 20.988281 7.375 43.082031 11.121093 65.328125 11.078125 1.941406 0 3.886718-.101563 5.828125-.164063-12.503907 23.375-30.082031 43.65625-51.445313 59.355469zm0 0"/></svg>