<svg height="150pt" viewBox="-15 0 511 511.99997" width="150pt" xmlns="http://www.w3.org/2000/svg"><path d="m381.753906 135.890625h-5.222656c0-69.226563-56.121094-125.347656-125.347656-125.347656-69.226563 0-125.34375 56.121093-125.34375 125.347656h-5.222656c-49.035157 0-88.785157 39.75-88.785157 88.785156 0 49.035157 39.75 88.785157 88.785157 88.785157h261.136718c49.035156 0 88.785156-39.75 88.785156-88.785157 0-49.035156-39.75-88.785156-88.785156-88.785156zm0 0" fill="#b3e4e8"/><path d="m178.066406 135.890625h-20.890625c-.027343-42.882813 28.984375-80.339844 70.507813-91.042969l5.222656 20.222656c-32.292969 8.335938-54.851562 37.46875-54.839844 70.820313zm0 0" fill="#a5d2d6"/><g fill="#c0f5f9"><path d="m240.738281 386.578125c-5.769531 0-10.441406-4.679687-10.4375-10.449219 0-1.617187.375-3.214844 1.101563-4.664062l10.445312-20.890625c2.578125-5.164063 8.855469-7.257813 14.015625-4.679688 5.164063 2.578125 7.257813 8.855469 4.679688 14.019531l-10.445313 20.890626c-1.769531 3.542968-5.394531 5.78125-9.359375 5.773437zm0 0"/><path d="m324.304688 386.578125c-5.769532 0-10.445313-4.679687-10.441407-10.449219 0-1.617187.378907-3.214844 1.101563-4.664062l10.445312-20.890625c2.578125-5.164063 8.855469-7.257813 14.019532-4.679688 5.160156 2.578125 7.257812 8.855469 4.679687 14.019531l-10.449219 20.890626c-1.769531 3.542968-5.394531 5.78125-9.355468 5.773437zm0 0"/><path d="m407.867188 386.578125c-5.769532 0-10.445313-4.679687-10.441407-10.449219 0-1.617187.378907-3.214844 1.101563-4.664062l10.445312-20.890625c2.578125-5.164063 8.855469-7.257813 14.019532-4.679688 5.164062 2.578125 7.257812 8.855469 4.679687 14.019531l-10.445313 20.890626c-1.773437 3.542968-5.398437 5.78125-9.359374 5.773437zm0 0"/><path d="m157.175781 386.578125c-5.769531 0-10.441406-4.679687-10.441406-10.449219.003906-1.617187.378906-3.214844 1.101563-4.664062l10.449218-20.890625c2.578125-5.164063 8.851563-7.257813 14.015625-4.679688 5.164063 2.578125 7.257813 8.855469 4.679688 14.019531l-10.445313 20.890626c-1.769531 3.542968-5.394531 5.78125-9.359375 5.773437zm0 0"/><path d="m73.613281 386.578125c-5.769531 0-10.445312-4.679687-10.441406-10.449219 0-1.617187.378906-3.214844 1.101563-4.664062l10.445312-20.890625c2.578125-5.164063 8.855469-7.257813 14.019531-4.679688 5.164063 2.578125 7.257813 8.855469 4.679688 14.019531l-10.445313 20.890626c-1.773437 3.542968-5.398437 5.78125-9.359375 5.773437zm0 0"/><path d="m209.402344 449.253906c-5.769532-.003906-10.441406-4.683594-10.4375-10.453125 0-1.617187.375-3.214843 1.101562-4.664062l10.445313-20.890625c2.578125-5.160156 8.851562-7.257813 14.015625-4.679688 5.164062 2.578125 7.257812 8.855469 4.679687 14.019532l-10.445312 20.890624c-1.769531 3.542969-5.394531 5.78125-9.359375 5.777344zm0 0"/><path d="m292.964844 449.253906c-5.765625-.003906-10.441406-4.683594-10.4375-10.453125 0-1.617187.378906-3.214843 1.101562-4.664062l10.445313-20.890625c2.578125-5.160156 8.855469-7.257813 14.019531-4.679688 5.160156 2.578125 7.257812 8.855469 4.679688 14.019532l-10.445313 20.890624c-1.773437 3.542969-5.398437 5.78125-9.363281 5.777344zm0 0"/><path d="m376.53125 449.253906c-5.769531-.003906-10.445312-4.683594-10.441406-10.453125 0-1.617187.378906-3.214843 1.101562-4.664062l10.445313-20.890625c2.578125-5.160156 8.855469-7.257813 14.019531-4.679688s7.257812 8.855469 4.679688 14.019532l-10.445313 20.890624c-1.773437 3.542969-5.398437 5.78125-9.359375 5.777344zm0 0"/><path d="m125.839844 449.253906c-5.769532-.003906-10.441406-4.683594-10.441406-10.453125.003906-1.617187.378906-3.214843 1.101562-4.664062l10.445312-20.890625c2.582032-5.160156 8.855469-7.257813 14.019532-4.679688 5.164062 2.578125 7.257812 8.855469 4.679687 14.019532l-10.445312 20.890624c-1.773438 3.542969-5.398438 5.78125-9.359375 5.777344zm0 0"/><path d="m42.277344 449.253906c-5.769532-.003906-10.445313-4.683594-10.441406-10.453125 0-1.617187.378906-3.214843 1.101562-4.664062l10.445312-20.890625c2.578126-5.160156 8.855469-7.257813 14.019532-4.679688 5.164062 2.578125 7.257812 8.855469 4.679687 14.019532l-10.445312 20.890624c-1.773438 3.542969-5.398438 5.78125-9.359375 5.777344zm0 0"/><path d="m178.066406 511.925781c-5.769531-.003906-10.441406-4.683593-10.441406-10.453125.003906-1.617187.378906-3.214844 1.105469-4.660156l10.445312-20.890625c2.578125-5.164063 8.851563-7.261719 14.015625-4.679687 5.164063 2.578124 7.257813 8.851562 4.679688 14.015624l-10.445313 20.890626c-1.769531 3.546874-5.394531 5.78125-9.359375 5.777343zm0 0"/><path d="m261.628906 511.925781c-5.765625-.003906-10.441406-4.683593-10.4375-10.453125 0-1.617187.375-3.214844 1.101563-4.660156l10.445312-20.890625c2.578125-5.164063 8.855469-7.261719 14.015625-4.679687 5.164063 2.578124 7.257813 8.851562 4.679688 14.015624l-10.445313 20.890626c-1.769531 3.546874-5.394531 5.78125-9.359375 5.777343zm0 0"/><path d="m345.195312 511.925781c-5.769531-.003906-10.445312-4.683593-10.441406-10.453125 0-1.617187.378906-3.214844 1.101563-4.660156l10.445312-20.890625c2.578125-5.164063 8.855469-7.261719 14.019531-4.679687 5.160157 2.578124 7.257813 8.851562 4.679688 14.015624l-10.445312 20.890626c-1.773438 3.546874-5.398438 5.78125-9.359376 5.777343zm0 0"/><path d="m94.503906 511.925781c-5.769531-.003906-10.441406-4.683593-10.441406-10.453125 0-1.617187.378906-3.214844 1.101562-4.660156l10.445313-20.890625c2.578125-5.164063 8.855469-7.261719 14.019531-4.679687 5.164063 2.578124 7.257813 8.851562 4.679688 14.015624l-10.445313 20.890626c-1.773437 3.546874-5.398437 5.78125-9.359375 5.777343zm0 0"/><path d="m10.941406 511.925781c-5.769531-.003906-10.445312-4.683593-10.441406-10.453125 0-1.617187.378906-3.214844 1.101562-4.660156l10.445313-20.890625c2.578125-5.164063 8.855469-7.261719 14.019531-4.679687 5.160156 2.578124 7.257813 8.851562 4.679688 14.015624l-10.445313 20.890626c-1.773437 3.546874-5.398437 5.78125-9.359375 5.777343zm0 0"/></g><path d="m366.085938 261.234375h41.78125v20.890625h-41.78125zm0 0" fill="#a5d2d6"/><path d="m324.304688 261.234375h20.890624v20.890625h-20.890624zm0 0" fill="#a5d2d6"/><path d="m232.96875 65.070312-5.222656-20.222656c-41.519532 10.707032-70.523438 48.164063-70.496094 91.042969h20.890625c-.011719-33.347656 22.539063-62.480469 54.828125-70.820313zm0 0"/><path d="m120.691406 323.90625h261.132813c54.804687.035156 99.261719-44.363281 99.296875-99.167969.03125-52.972656-41.546875-96.628906-94.457032-99.179687-5.65625-74.78125-70.863281-130.820313-145.644531-125.164063-66.917969 5.058594-120.105469 58.246094-125.164062 125.164063-54.742188 2.636718-96.980469 49.148437-94.34375 103.890625 2.546875 52.910156 46.207031 94.492187 99.179687 94.457031zm0-177.570312h15.667969v-10.445313c0-63.457031 51.441406-114.898437 114.898437-114.898437 63.457032 0 114.898438 51.441406 114.898438 114.898437v10.445313h15.667969c43.269531 0 78.34375 35.074218 78.34375 78.339843s-35.074219 78.339844-78.34375 78.339844h-261.132813c-43.269531 0-78.34375-35.074219-78.34375-78.339844s35.074219-78.339843 78.34375-78.339843zm0 0"/><path d="m255.925781 345.894531c-5.160156-2.578125-11.433593-.488281-14.011719 4.671875-.003906.003906-.003906.003906-.003906.007813l-10.445312 20.890625c-2.621094 5.140625-.574219 11.429687 4.566406 14.046875 5.140625 2.621093 11.429688.574219 14.046875-4.566407.023437-.046874.046875-.09375.070313-.140624l10.449218-20.890626c2.578125-5.160156.492188-11.433593-4.667968-14.019531 0 0 0 0-.003907 0zm0 0"/><path d="m339.492188 345.894531c-5.160157-2.578125-11.4375-.488281-14.015626 4.671875 0 .003906-.003906.003906-.003906.007813l-10.445312 20.890625c-2.617188 5.140625-.574219 11.429687 4.566406 14.046875 5.140625 2.621093 11.429688.574219 14.046875-4.566407.027344-.046874.050781-.09375.074219-.140624l10.445312-20.890626c2.582032-5.160156.492188-11.433593-4.667968-14.019531zm0 0"/><path d="m407.929688 386.578125c3.976562.023437 7.621093-2.214844 9.398437-5.773437l10.445313-20.890626c2.621093-5.140624.574218-11.429687-4.566407-14.050781-5.140625-2.617187-11.429687-.574219-14.046875 4.566407-.023437.050781-.046875.097656-.070312.144531l-10.445313 20.890625c-2.582031 5.160156-.488281 11.433594 4.671875 14.015625 1.433594.714843 3.011719 1.089843 4.613282 1.097656zm0 0"/><path d="m166.578125 380.804688 10.445313-20.890626c2.617187-5.140624.574218-11.429687-4.566407-14.050781-5.140625-2.617187-11.429687-.574219-14.046875 4.566407-.027344.046874-.050781.097656-.074218.144531l-10.445313 20.890625c-2.621094 5.140625-.574219 11.429687 4.566406 14.050781 5.136719 2.617187 11.429688.574219 14.046875-4.566406.023438-.046875.050782-.097657.074219-.144531zm0 0"/><path d="m73.675781 386.578125c3.957031.003906 7.578125-2.234375 9.347657-5.773437l10.445312-20.890626c2.621094-5.140624.574219-11.429687-4.566406-14.050781-5.136719-2.617187-11.429688-.574219-14.046875 4.566407-.023438.046874-.050781.097656-.074219.144531l-10.445312 20.890625c-2.578126 5.160156-.484376 11.433594 4.675781 14.015625 1.449219.722656 3.042969 1.097656 4.664062 1.097656zm0 0"/><path d="m210.574219 413.246094-10.445313 20.890625c-2.621094 5.140625-.578125 11.433593 4.5625 14.050781s11.429688.574219 14.050782-4.566406c.023437-.046875.046874-.097656.070312-.144532l10.445312-20.890624c2.621094-5.140626.578126-11.429688-4.5625-14.050782-5.140624-2.617187-11.429687-.574218-14.050781 4.566406-.023437.046876-.046875.097657-.070312.144532zm0 0"/><path d="m294.136719 413.246094-10.445313 20.890625c-2.617187 5.140625-.574218 11.433593 4.566406 14.050781 5.140626 2.617188 11.429688.574219 14.046876-4.566406.027343-.050782.050781-.097656.074218-.144532l10.445313-20.890624c2.617187-5.140626.574219-11.429688-4.566407-14.046876-5.140624-2.621093-11.429687-.574218-14.050781 4.566407-.023437.046875-.046875.09375-.070312.140625zm0 0"/><path d="m376.59375 449.253906c3.976562.019532 7.621094-2.21875 9.398438-5.777344l10.445312-20.890624c2.621094-5.140626.574219-11.429688-4.566406-14.046876-5.140625-2.621093-11.429688-.574218-14.046875 4.566407-.023438.046875-.046875.09375-.070313.140625l-10.445312 20.890625c-2.582032 5.164062-.488282 11.4375 4.671875 14.015625 1.433593.714844 3.011719 1.089844 4.613281 1.101562zm0 0"/><path d="m135.242188 443.476562 10.445312-20.890624c2.617188-5.140626.574219-11.429688-4.566406-14.050782-5.140625-2.617187-11.429688-.574218-14.050782 4.566406-.023437.046876-.046874.097657-.070312.144532l-10.445312 20.890625c-2.621094 5.140625-.574219 11.433593 4.566406 14.050781 5.136718 2.617188 11.429687.574219 14.046875-4.566406.023437-.046875.046875-.097656.074219-.144532zm0 0"/><path d="m57.464844 408.566406c-5.160156-2.578125-11.433594-.488281-14.015625 4.671875 0 .003907 0 .007813-.003907.007813l-10.445312 20.890625c-2.617188 5.140625-.574219 11.429687 4.566406 14.050781 5.140625 2.617188 11.429688.574219 14.050782-4.566406.023437-.046875.046874-.097656.070312-.144532l10.445312-20.890624c2.582032-5.160157.492188-11.433594-4.664062-14.015626-.003906 0-.003906-.003906-.003906-.003906zm0 0"/><path d="m173.46875 510.878906c5.164062 2.574219 11.433594.480469 14.007812-4.679687l10.445313-20.890625c2.621094-5.140625.578125-11.429688-4.5625-14.046875-5.140625-2.621094-11.429687-.574219-14.050781 4.5625-.023438.050781-.046875.097656-.070313.148437l-10.445312 20.890625c-2.582031 5.160157-.488281 11.433594 4.671875 14.011719 0 .003906.003906.003906.003906.003906zm0 0"/><path d="m257.035156 510.878906c5.160156 2.574219 11.429688.480469 14.007813-4.679687l10.445312-20.890625c2.617188-5.140625.574219-11.429688-4.566406-14.046875-5.140625-2.617188-11.433594-.574219-14.050781 4.566406-.023438.046875-.046875.097656-.070313.144531l-10.445312 20.890625c-2.582031 5.160157-.488281 11.433594 4.671875 14.011719 0 .003906.003906.003906.007812.003906zm0 0"/><path d="m340.597656 510.878906c5.160156 2.574219 11.429688.480469 14.007813-4.679687l10.445312-20.890625c2.617188-5.140625.574219-11.429688-4.566406-14.046875-5.140625-2.617188-11.429687-.574219-14.050781 4.566406-.023438.046875-.046875.097656-.070313.144531l-10.445312 20.890625c-2.578125 5.160157-.488281 11.433594 4.671875 14.011719.003906.003906.003906.003906.007812.003906zm0 0"/><path d="m109.691406 471.242188c-5.160156-2.582032-11.433594-.488282-14.015625 4.667968 0 .003906 0 .007813-.003906.007813l-10.445313 20.890625c-2.617187 5.140625-.574218 11.433594 4.566407 14.050781s11.429687.574219 14.046875-4.566406c.027344-.046875.050781-.097657.074218-.144531l10.445313-20.890626c2.582031-5.160156.492187-11.433593-4.664063-14.015624zm0 0"/><path d="m6.34375 510.878906c5.160156 2.574219 11.429688.480469 14.007812-4.679687l10.445313-20.890625c2.617187-5.140625.574219-11.429688-4.566406-14.046875-5.140625-2.621094-11.429688-.574219-14.046875 4.566406-.027344.046875-.050782.09375-.074219.144531l-10.445313 20.890625c-2.578124 5.160157-.488281 11.433594 4.671876 14.011719.003906.003906.003906.003906.007812.003906zm0 0"/><path d="m366.15625 261.234375h41.785156v20.890625h-41.785156zm0 0"/><path d="m324.375 261.234375h20.890625v20.890625h-20.890625zm0 0"/></svg>