<svg height="512pt" viewBox="0 0 512.00225 512" width="512pt" xmlns="http://www.w3.org/2000/svg"><path d="m256 0c-4.710938 0-8.53125 3.820312-8.53125 8.535156v204.800782c0 4.710937 3.820312 8.53125 8.53125 8.53125 4.714844 0 8.535156-3.820313 8.535156-8.53125v-204.800782c-.003906-4.714844-3.824218-8.535156-8.535156-8.535156zm0 0" fill="#b8eaee"/><path d="m87.039062 74.984375c-3.191406-3.46875-8.589843-3.691406-12.058593-.5-3.464844 3.191406-3.691407 8.589844-.5 12.058594.160156.171875.328125.339843.5.5l148.847656 148.863281c3.335937 3.332031 8.742187 3.332031 12.074219 0 3.335937-3.335938 3.335937-8.742188 0-12.074219zm0 0" fill="#b8eaee"/><path d="m230.398438 256c0-4.710938-3.820313-8.53125-8.53125-8.53125h-213.332032c-4.714844 0-8.535156 3.820312-8.535156 8.53125 0 4.714844 3.820312 8.535156 8.535156 8.535156h213.332032c4.710937 0 8.53125-3.820312 8.53125-8.535156zm0 0" fill="#b8eaee"/><path d="m222.761719 277.164062-147.777344 147.796876c-3.46875 3.191406-3.691406 8.589843-.5 12.058593s8.589844 3.691407 12.054687.5c.175782-.160156.34375-.328125.5-.5l147.796876-147.738281c3.335937-3.335938 3.335937-8.742188 0-12.074219-3.332032-3.335937-8.738282-3.335937-12.074219 0zm0 0" fill="#b8eaee"/><path d="m256 290.132812c-4.710938 0-8.53125 3.820313-8.53125 8.535157v204.800781c0 4.710938 3.820312 8.53125 8.53125 8.53125 4.714844 0 8.535156-3.820312 8.535156-8.53125v-204.800781c-.003906-4.714844-3.824218-8.535157-8.535156-8.535157zm0 0" fill="#b8eaee"/><path d="m288.171875 276.097656c-3.335937-3.335937-8.742187-3.335937-12.074219 0-3.335937 3.332032-3.335937 8.738282 0 12.074219l148.863282 148.847656c3.464843 3.191407 8.863281 2.96875 12.054687-.5 3.007813-3.265625 3.007813-8.292969 0-11.558593zm0 0" fill="#b8eaee"/><path d="m503.464844 247.46875h-204.796875c-4.714844 0-8.535157 3.820312-8.535157 8.53125 0 4.714844 3.820313 8.535156 8.535157 8.535156h204.796875c4.714844 0 8.535156-3.820312 8.535156-8.535156 0-4.710938-3.820312-8.53125-8.535156-8.53125zm0 0" fill="#b8eaee"/><path d="m280.535156 240c2.261719 0 4.429688-.898438 6.03125-2.5l150.449219-150.457031c3.46875-3.191407 3.691406-8.589844.5-12.058594s-8.589844-3.691406-12.054687-.5c-.175782.160156-.34375.324219-.5.5l-150.460938 150.449219c-3.332031 3.332031-3.332031 8.738281.003906 12.070312 1.597656 1.597656 3.765625 2.496094 6.03125 2.496094zm0 0" fill="#b8eaee"/><path d="m256 196.269531-51.730469 29.863281v59.734376l51.730469 29.867187 51.730469-29.867187v-59.734376zm21.863281 72.421875-21.863281 12.644532-21.894531-12.644532v-25.292968l21.894531-12.648438 21.90625 12.648438zm0 0" fill="#aedee2"/><g fill="#c0f5f9"><path d="m256 145.066406c-1.683594 0-3.332031-.496094-4.734375-1.433594l-42.667969-28.441406c-3.925781-2.613281-4.984375-7.914062-2.367187-11.839844 2.613281-3.921874 7.914062-4.984374 11.839843-2.367187l37.929688 25.308594 37.929688-25.292969c3.925781-2.613281 9.226562-1.554688 11.839843 2.371094 2.617188 3.921875 1.554688 9.222656-2.367187 11.839844l-42.667969 28.441406c-1.402344.929687-3.050781 1.421875-4.734375 1.414062zm0 0"/><path d="m256 103.46875c-1.597656 0-3.167969-.449219-4.523438-1.296875l-42.664062-26.667969c-4.007812-2.496094-5.230469-7.769531-2.734375-11.777344 2.5-4.003906 7.773437-5.226562 11.777344-2.730468l38.144531 23.878906 36.4375-22.777344c4.003906-2.496094 9.277344-1.273437 11.777344 2.730469 2.496094 4.007813 1.273437 9.277344-2.730469 11.777344l-40.960937 25.597656c-1.359376.835937-2.925782 1.273437-4.523438 1.265625zm0 0"/><path d="m256 59.734375c-1.597656 0-3.167969-.449219-4.523438-1.296875l-27.304687-17.066406c-4.007813-2.5-5.230469-7.769532-2.730469-11.777344 2.496094-4.003906 7.769532-5.226562 11.773438-2.730469l22.785156 14.277344 22.785156-14.242187c4.003906-2.5 9.277344-1.277344 11.773438 2.730468 2.5 4.003906 1.277344 9.277344-2.730469 11.777344l-27.304687 17.066406c-1.359376.835938-2.925782 1.273438-4.523438 1.261719zm0 0"/><path d="m121.234375 190.113281c-4.714844.03125-8.558594-3.765625-8.585937-8.480469-.023438-4.09375 2.863281-7.628906 6.878906-8.421874l44.707031-8.945313 8.992187-44.695313c.988282-4.609374 5.527344-7.542968 10.136719-6.550781 4.511719.96875 7.4375 5.355469 6.597657 9.894531l-10.070313 50.3125c-.675781 3.375-3.3125 6.015626-6.691406 6.691407l-50.320313 10.027343c-.542968.109376-1.09375.164063-1.644531.167969zm0 0"/><path d="m93.074219 161.957031c-4.714844.09375-8.609375-3.648437-8.703125-8.363281-.085938-4.109375 2.773437-7.691406 6.796875-8.527344l43.820312-10.109375 9.660157-41.867187c1.058593-4.589844 5.640624-7.457032 10.230468-6.398438 4.59375 1.058594 7.460938 5.640625 6.402344 10.230469l-10.855469 47.070313c-.734375 3.183593-3.21875 5.667968-6.398437 6.402343l-49.027344 11.3125c-.628906.15625-1.277344.238281-1.925781.25zm0 0"/><path d="m79.804688 126.960938c-4.714844.007812-8.542969-3.804688-8.550782-8.519532-.003906-3.988281 2.75-7.449218 6.636719-8.335937l26.214844-5.996094 6.042969-26.183594c1.0625-4.59375 5.648437-7.457031 10.246093-6.394531 4.59375 1.0625 7.457031 5.648438 6.394531 10.246094l-7.324218 31.324218c-.730469 3.183594-3.214844 5.667969-6.398438 6.402344l-31.375 7.242188c-.621094.140625-1.253906.210937-1.886718.214844zm0 0"/><path d="m108.082031 307.199219c-4.710937-.003907-8.527343-3.824219-8.523437-8.539063 0-1.683594.5-3.328125 1.433594-4.730468l25.300781-37.929688-25.285157-37.929688c-2.613281-3.921874-1.554687-9.21875 2.363282-11.835937 3.921875-2.613281 9.222656-1.558594 11.835937 2.363281l28.441407 42.667969c1.914062 2.867187 1.914062 6.605469 0 9.472656l-28.441407 42.664063c-1.585937 2.382812-4.261719 3.808594-7.125 3.796875zm0 0"/><path d="m68.265625 307.199219c-4.710937-.003907-8.527344-3.828125-8.523437-8.539063 0-1.597656.449218-3.160156 1.296874-4.515625l23.824219-38.144531-22.765625-36.4375c-2.5-4.003906-1.277344-9.277344 2.730469-11.773438 4.003906-2.5 9.277344-1.277343 11.777344 2.730469l25.597656 40.957031c1.730469 2.769532 1.730469 6.28125 0 9.046876l-26.664063 42.667968c-1.566406 2.503906-4.316406 4.019532-7.273437 4.007813zm0 0"/><path d="m34.132812 291.839844c-4.710937-.003906-8.527343-3.828125-8.523437-8.539063 0-1.597656.449219-3.160156 1.296875-4.515625l14.222656-22.785156-14.230468-22.78125c-2.5-4.007812-1.277344-9.28125 2.730468-11.777344 4.003906-2.5 9.277344-1.277344 11.773438 2.730469l17.066406 27.304687c1.730469 2.769532 1.730469 6.28125 0 9.046876l-17.066406 27.308593c-1.566406 2.503907-4.316406 4.019531-7.269532 4.007813zm0 0"/><path d="m181.570312 399.292969c-4.050781-.003907-7.542968-2.855469-8.351562-6.828125l-8.945312-44.730469-44.703126-8.960937c-4.609374-.988282-7.542968-5.527344-6.550781-10.132813.96875-4.515625 5.355469-7.441406 9.894531-6.601563l50.3125 10.070313c3.375.675781 6.011719 3.316406 6.691407 6.691406l10.035156 50.320313c.917969 4.617187-2.074219 9.109375-6.691406 10.035156-.558594.101562-1.121094.148438-1.691407.136719zm0 0"/><path d="m153.421875 427.453125c-3.972656 0-7.417969-2.742187-8.3125-6.613281l-10.121094-43.828125-41.863281-9.667969c-4.59375-1.058594-7.457031-5.640625-6.402344-10.230469 1.058594-4.59375 5.640625-7.460937 10.234375-6.402343l47.070313 10.863281c3.179687.734375 5.664062 3.21875 6.398437 6.402343l11.316407 49.023438c1.0625 4.589844-1.800782 9.175781-6.390626 10.238281-.003906 0-.007812 0-.011718 0-.628906.144531-1.273438.214844-1.917969.214844zm0 0"/><path d="m118.417969 440.722656c-3.96875 0-7.414063-2.738281-8.3125-6.605468l-6-26.179688-26.214844-6.015625c-4.59375-1.058594-7.460937-5.640625-6.402344-10.238281 1.058594-4.59375 5.640625-7.460938 10.234375-6.402344l31.378906 7.253906c3.179688.730469 5.664063 3.21875 6.398438 6.398438l7.246094 31.371094c1.0625 4.589843-1.796875 9.171874-6.390625 10.234374-.003907.003907-.007813.003907-.011719.003907-.632812.128906-1.277344.191406-1.925781.179687zm0 0"/><path d="m298.667969 412.441406c-1.683594.003906-3.328125-.492187-4.730469-1.421875l-37.9375-25.3125-37.929688 25.292969c-3.925781 2.617188-9.226562 1.554688-11.839843-2.367188-2.617188-3.921874-1.558594-9.222656 2.367187-11.839843l42.667969-28.441407c2.867187-1.914062 6.601563-1.914062 9.46875 0l42.667969 28.441407c3.929687 2.601562 5.007812 7.894531 2.410156 11.824219-1.585938 2.398437-4.273438 3.835937-7.144531 3.824218zm0 0"/><path d="m298.667969 452.269531c-1.597657-.003906-3.160157-.453125-4.515625-1.296875l-38.152344-23.84375-36.4375 22.773438c-4.007812 2.5-9.277344 1.277344-11.777344-2.730469-2.496094-4.003906-1.273437-9.277344 2.730469-11.773437l40.960937-25.601563c2.765626-1.730469 6.277344-1.730469 9.046876 0l42.664062 26.667969c4.015625 2.464844 5.273438 7.722656 2.804688 11.738281-1.5625 2.542969-4.339844 4.085937-7.324219 4.066406zm0 0"/><path d="m283.308594 486.402344c-1.597656-.003906-3.164063-.453125-4.515625-1.296875l-22.792969-14.242188-22.785156 14.242188c-4.003906 2.496093-9.277344 1.273437-11.773438-2.730469-2.5-4.007812-1.277344-9.28125 2.730469-11.777344l27.304687-17.066406c2.765626-1.730469 6.277344-1.730469 9.046876 0l27.304687 17.066406c4.015625 2.46875 5.273437 7.722656 2.804687 11.738282-1.5625 2.542968-4.339843 4.085937-7.324218 4.066406zm0 0"/><path d="m330.429688 399.292969c-.574219.003906-1.148438-.054688-1.707032-.171875-4.59375-.933594-7.574218-5.398438-6.675781-10l10.0625-50.347656c.675781-3.375 3.3125-6.011719 6.691406-6.691407l50.320313-10.023437c4.632812-.859375 9.085937 2.203125 9.941406 6.835937.839844 4.542969-2.082031 8.925781-6.597656 9.898438l-44.738282 8.941406-8.953124 44.699219c-.796876 3.980468-4.285157 6.847656-8.34375 6.859375zm0 0"/><path d="m359.039062 425.488281c-.644531.003907-1.289062-.070312-1.917968-.210937-4.59375-1.058594-7.460938-5.636719-6.402344-10.230469 0-.003906 0-.007813 0-.011719l10.855469-47.066406c.734375-3.183594 3.21875-5.667969 6.398437-6.402344l49.027344-11.316406c4.605469-1.054688 9.199219 1.820312 10.253906 6.425781 1.058594 4.609375-1.816406 9.199219-6.421875 10.257813l-43.820312 10.113281-9.660157 41.863281c-.90625 3.855469-4.351562 6.582032-8.3125 6.578125zm0 0"/><path d="m393.582031 440.722656c-.648437 0-1.292969-.070312-1.925781-.214844-4.59375-1.054687-7.460938-5.636718-6.402344-10.230468 0 0 0-.003906 0-.007813l7.28125-31.371093c.730469-3.179688 3.214844-5.664063 6.398438-6.398438l31.378906-7.246094c4.59375-1.058594 9.175781 1.808594 10.234375 6.40625 1.058594 4.59375-1.808594 9.175782-6.40625 10.234375l-26.171875 6.042969-6.046875 26.179688c-.902344 3.875-4.359375 6.617187-8.339844 6.605468zm0 0"/><path d="m403.917969 307.199219c-2.855469.003906-5.523438-1.421875-7.109375-3.796875l-28.441406-42.664063c-1.914063-2.867187-1.914063-6.605469 0-9.472656l28.441406-42.667969c2.617187-3.921875 7.914062-4.976562 11.835937-2.363281 3.921875 2.617187 4.980469 7.914063 2.363281 11.835937l-25.300781 37.929688 25.285157 37.929688c2.613281 3.921874 1.558593 9.21875-2.363282 11.835937-1.394531.933594-3.035156 1.429687-4.710937 1.433594zm0 0"/><path d="m442.675781 305.496094c-2.945312 0-5.683593-1.515625-7.246093-4.011719l-25.597657-40.960937c-1.730469-2.765626-1.730469-6.277344 0-9.042969l26.664063-42.667969c2.5-4.007812 7.769531-5.230469 11.777344-2.730469 4.007812 2.496094 5.226562 7.769531 2.730468 11.773438l-23.867187 38.144531 22.765625 36.4375c2.5 3.996094 1.285156 9.261719-2.710938 11.761719-1.355468.84375-2.917968 1.292969-4.515625 1.296875zm0 0"/><path d="m477.867188 291.839844c-2.945313.003906-5.683594-1.511719-7.246094-4.007813l-17.066406-27.308593c-1.730469-2.765626-1.730469-6.277344 0-9.046876l17.066406-27.304687c2.5-4.007813 7.769531-5.230469 11.777344-2.730469 4.003906 2.496094 5.226562 7.769532 2.730468 11.777344l-14.257812 22.78125 14.230468 22.785156c2.5 3.996094 1.285157 9.261719-2.710937 11.757813-1.359375.847656-2.925781 1.296875-4.523437 1.296875zm0 0"/><path d="m390.765625 190.113281c-.570313 0-1.144531-.054687-1.707031-.167969l-50.285156-10.054687c-3.375-.675781-6.011719-3.3125-6.691407-6.6875l-10.035156-50.324219c-.855469-4.632812 2.207031-9.085937 6.839844-9.941406 4.539062-.839844 8.925781 2.082031 9.894531 6.597656l8.945312 44.699219 44.703126 8.992187c4.625.914063 7.632812 5.402344 6.71875 10.027344-.796876 4.015625-4.332032 6.902344-8.425782 6.878906zm0 0"/><path d="m416.964844 161.503906c-.648438 0-1.289063-.070312-1.921875-.214844l-47.070313-10.863281c-3.179687-.730469-5.664062-3.21875-6.398437-6.398437l-11.316407-49.023438c-1.058593-4.605468 1.8125-9.199218 6.417969-10.257812 4.605469-1.0625 9.195313 1.8125 10.257813 6.417968l10.121094 43.824219 41.863281 9.667969c4.589843 1.070312 7.445312 5.65625 6.378906 10.246094-.898437 3.859375-4.328125 6.589844-8.289063 6.601562zm0 0"/><path d="m432.195312 126.960938c-.644531 0-1.289062-.070313-1.917968-.214844l-31.378906-7.277344c-3.179688-.734375-5.667969-3.21875-6.398438-6.402344l-7.246094-31.367187c-1.0625-4.59375 1.800782-9.183594 6.394532-10.246094 4.597656-1.0625 9.183593 1.800781 10.246093 6.398437l6.042969 26.179688 26.171875 6.039062c4.59375 1.050782 7.46875 5.621094 6.421875 10.21875-.886719 3.886719-4.347656 6.644532-8.335938 6.636719zm0 0"/><path d="m283.308594 486.402344c-1.597656-.003906-3.164063-.453125-4.515625-1.296875l-22.792969-14.242188-22.785156 14.242188c-4.003906 2.496093-9.277344 1.273437-11.773438-2.730469-2.5-4.007812-1.277344-9.28125 2.730469-11.777344l27.304687-17.066406c2.765626-1.730469 6.277344-1.730469 9.046876 0l27.304687 17.066406c4.015625 2.46875 5.273437 7.722656 2.804687 11.738282-1.5625 2.542968-4.339843 4.085937-7.324218 4.066406zm0 0"/></g><path d="m251.734375 223.351562-21.898437 12.648438c-2.640626 1.523438-4.265626 4.339844-4.265626 7.390625v25.300781c0 3.046875 1.625 5.863282 4.265626 7.386719l21.898437 12.648437c2.640625 1.523438 5.890625 1.523438 8.53125 0l21.90625-12.648437c2.640625-1.523437 4.265625-4.339844 4.265625-7.386719v-25.300781c0-3.050781-1.625-5.867187-4.265625-7.390625l-21.90625-12.648438c-2.640625-1.523437-5.890625-1.523437-8.53125 0zm17.59375 24.96875v15.4375l-13.328125 7.722657-13.363281-7.679688v-15.480469l13.363281-7.679687zm0 0"/><path d="m503.464844 247.46875h-27.304688l8.910156-14.25c2.496094-4.007812 1.273438-9.28125-2.734374-11.777344-4.003907-2.5-9.277344-1.277344-11.773438 2.730469l-14.488281 23.296875h-23.605469l18.5-29.613281c2.5-4.003907 1.277344-9.277344-2.730469-11.773438-4.003906-2.5-9.277343-1.277343-11.777343 2.730469l-24.121094 38.65625h-20.925782l19.628907-29.398438c2.613281-3.921874 1.554687-9.21875-2.363281-11.835937-3.921876-2.613281-9.222657-1.558594-11.835938 2.363281l-25.941406 38.871094h-54.613282v-21.335938c0-3.046874-1.628906-5.863281-4.269531-7.386718l-4.222656-2.449219 35.507813-35.507813 45.816406 9.15625c.558594.113282 1.132812.167969 1.707031.171876 4.710937.027343 8.554687-3.769532 8.582031-8.484376.027344-4.09375-2.859375-7.628906-6.875-8.421874l-34.648437-6.929688 14.796875-14.796875 42.359375 9.796875c.632812.140625 1.273437.214844 1.921875.214844 4.710937-.011719 8.523437-3.84375 8.511718-8.554688-.011718-3.960937-2.746093-7.394531-6.601562-8.292968l-32.058594-7.40625 16.691406-16.691407 26.769532 6.1875c.628906.140625 1.273437.214844 1.917968.214844 4.714844.007813 8.542969-3.804687 8.550782-8.519531.003906-3.988282-2.75-7.449219-6.636719-8.335938l-16.367187-3.769531 19.273437-19.285156c3.46875-3.191407 3.691406-8.589844.5-12.058594s-8.589844-3.691406-12.054687-.5c-.175782.160156-.34375.324219-.5.5l-19.285157 19.277344-3.757812-16.375c-1.0625-4.597657-5.648438-7.460938-10.242188-6.398438s-7.457031 5.652344-6.394531 10.246094l6.175781 26.761719-16.714843 16.691406-7.808594-34.023438c-1.0625-4.59375-5.644532-7.457031-10.238282-6.398437-4.589843 1.0625-7.453124 5.644531-6.394531 10.238281l10.242188 44.421875-14.796875 14.796875-6.972656-34.652344c-.988282-4.605468-5.527344-7.539062-10.136719-6.550781-4.511719.96875-7.4375 5.355469-6.597657 9.894531l9.164063 45.808594-38.738281 38.742188-27.933594-16.128906v-50.234376l38.871094-25.898437c3.925781-2.617187 4.984375-7.917969 2.367187-11.839844-2.613281-3.925781-7.914062-4.984375-11.839843-2.371093l-29.394532 19.601562v-20.921875l36.949219-23.101563c4.003906-2.496093 5.226563-7.769531 2.730469-11.777343-2.5-4.003907-7.769532-5.226563-11.777344-2.730469l-27.90625 17.476562v-23.601562l23.296875-14.566406c4.007813-2.5 5.230469-7.769532 2.730469-11.777344-2.496094-4.003906-7.769532-5.226562-11.773438-2.730469l-14.253906 8.976563v-27.304688c0-4.714844-3.820312-8.535156-8.53125-8.535156s-8.53125 3.820312-8.53125 8.535156v27.304688l-14.253906-8.941406c-4.003906-2.496094-9.277344-1.273438-11.773438 2.730468-2.5 4.007813-1.277344 9.277344 2.730469 11.777344l23.292969 14.53125v23.601562l-29.609375-18.507812c-4.003907-2.496094-9.277344-1.273438-11.777344 2.730469-2.496094 4.007812-1.273437 9.277343 2.730469 11.777343l38.65625 24.132813v20.921875l-29.394532-19.625c-3.925781-2.617188-9.226562-1.554688-11.839843 2.367188-2.617188 3.921874-1.558594 9.226562 2.367187 11.839843l38.867188 25.925781v50.234376l-27.9375 16.128906-38.738282-38.742188 9.164063-45.839844c.855469-4.636718-2.203125-9.089843-6.839844-9.945312-4.539062-.839844-8.925781 2.082031-9.894531 6.597656l-6.929688 34.65625-14.804687-14.808594 9.796875-42.425781c1.054688-4.59375-1.808594-9.171875-6.402344-10.230469-4.59375-1.058593-9.171875 1.804688-10.230468 6.398438l-7.398438 32.058594-16.683594-16.691406 6.179688-26.757813c1.0625-4.597656-1.800782-9.183594-6.398438-10.246094-4.59375-1.0625-9.179687 1.800781-10.242187 6.394531l-3.78125 16.378907-19.285157-19.277344c-3.191406-3.46875-8.589843-3.691406-12.058593-.5-3.464844 3.191406-3.691407 8.589844-.5 12.058594.160156.171875.328125.339843.5.496093l19.277343 19.289063-16.367187 3.769531c-4.59375 1.046875-7.46875 5.621094-6.421875 10.214844.886719 3.890625 4.347656 6.644531 8.335938 6.636719.644531.003906 1.289062-.070313 1.917968-.210938l26.769532-6.1875 16.691406 16.691407-34.015625 7.824218c-4.59375 1.046875-7.46875 5.621094-6.421875 10.21875.886718 3.882813 4.339844 6.640625 8.328125 6.636719.648437 0 1.292969-.070313 1.925781-.214844l44.417969-10.238281 14.796875 14.796875-34.644532 6.925781c-4.625.914063-7.632812 5.40625-6.71875 10.027344.792969 4.015625 4.328126 6.902344 8.421876 6.878906.574218 0 1.144531-.058594 1.707031-.171875l45.808593-9.15625 35.507813 35.507813-4.269531 2.449218c-2.636719 1.523438-4.265625 4.339844-4.265625 7.390626v21.347656h-54.613281l-25.949219-38.867188c-2.613281-3.921875-7.914063-4.980468-11.835938-2.363281-3.921875 2.613281-4.976562 7.914063-2.363281 11.835937l19.585938 29.394532h-20.925782l-23.089844-36.945313c-2.5-4.007812-7.769531-5.230469-11.777343-2.730469-4.003907 2.496094-5.226563 7.769532-2.730469 11.773438l17.46875 27.90625h-23.605469l-14.554687-23.296875c-2.5-4.003906-7.773438-5.226563-11.777344-2.730469-4.007812 2.496094-5.230469 7.769532-2.730469 11.777344l8.976563 14.25h-27.308594c-4.710938 0-8.53125 3.820312-8.53125 8.53125 0 4.714844 3.820312 8.535156 8.535156 8.535156h27.304688l-8.941406 14.25c-2.5 4.007813-1.277344 9.277344 2.730468 11.777344 4.003906 2.496094 9.277344 1.273438 11.773438-2.730469l14.527344-23.296875h23.601562l-18.5 29.609375c-2.5 4.007813-1.277344 9.277344 2.730469 11.777344 4.003906 2.496094 9.277343 1.273437 11.777343-2.730469l24.121094-38.65625h20.925782l-19.628907 29.398438c-2.613281 3.917968-1.554687 9.21875 2.367188 11.835937 3.917969 2.613281 9.21875 1.554688 11.835937-2.367187l25.9375-38.867188h54.613282v21.332032c0 3.050781 1.628906 5.867187 4.269531 7.390624l4.265625 2.449219-35.507813 35.507813-45.855469-9.15625c-4.636718-.859375-9.089843 2.203125-9.945312 6.835937-.839844 4.542969 2.082031 8.925781 6.597656 9.898438l34.644532 6.925781-14.796876 14.800781-42.425781-9.796875c-4.59375-1.058594-9.175781 1.804688-10.234375 6.398438-1.054687 4.59375 1.808594 9.171875 6.402344 10.230468l32.058594 7.40625-16.691406 16.691407-26.769532-6.183594c-4.59375-1.058594-9.175781 1.808594-10.234375 6.402344-1.058593 4.59375 1.808594 9.179687 6.402344 10.234375l16.367187 3.773437-19.273437 19.285157c-3.46875 3.191406-3.691406 8.589843-.5 12.058593s8.589844 3.691407 12.054687.5c.175782-.160156.34375-.328125.5-.5l19.277344-19.277343 3.78125 16.375c.898438 3.867187 4.339844 6.605468 8.3125 6.605468.648438 0 1.292969-.070312 1.925782-.214844 4.59375-1.054687 7.460937-5.636718 6.402343-10.230468 0 0 0-.003906 0-.007813l-6.179687-26.761719 16.691406-16.691406 7.851562 34.023438c.894532 3.871094 4.339844 6.613281 8.3125 6.613281.644532-.003906 1.289063-.078125 1.917969-.222656 4.59375-1.054688 7.460938-5.636719 6.402344-10.230469 0 0 0-.003906-.003906-.007812l-10.238281-44.425782 14.796874-14.796875 6.929688 34.652344c.808594 3.972656 4.300781 6.824219 8.351562 6.828125.574219.003906 1.148438-.054688 1.707032-.171875 4.574218-.933594 7.550781-5.371094 6.675781-9.957031l-9.164063-45.808594 38.738282-38.738281 27.941406 16.09375v50.234375l-38.871094 25.898437c-3.921875 2.617188-4.984375 7.917969-2.367187 11.839844 2.613281 3.921875 7.917969 4.984375 11.839843 2.367187l29.398438-19.601562v20.925781l-36.953125 23.097657c-4.003906 2.5-5.226563 7.773437-2.730469 11.777343 2.5 4.007813 7.773438 5.230469 11.777344 2.730469l27.90625-17.476562v23.605468l-23.296875 14.566406c-4.007813 2.496094-5.230469 7.769532-2.730469 11.773438 2.496094 4.007812 7.769532 5.230469 11.777344 2.730469l14.25-8.976563v27.308594c0 4.710938 3.820312 8.53125 8.53125 8.53125 4.714844 0 8.535156-3.820312 8.535156-8.53125v-27.308594l14.25 8.910156c4.003906 2.5 9.277344 1.273438 11.777344-2.730468 2.496094-4.007813 1.273438-9.277344-2.730469-11.777344l-23.296875-14.496094v-23.605468l29.609375 18.511718c4.007813 2.496094 9.277344 1.273438 11.777344-2.730468 2.496094-4.007813 1.273437-9.28125-2.730469-11.777344l-38.65625-24.132813v-20.921875l29.398438 19.625c3.921875 2.613282 9.222656 1.554688 11.839844-2.367187 2.613281-3.925781 1.554687-9.226563-2.371094-11.839844l-38.867188-25.925781v-50.234375l27.9375-16.128907 38.738282 38.742188-9.164063 45.839844c-.917969 4.617187 2.074219 9.109375 6.691406 10.035156.5625.117188 1.132813.171875 1.707031.171875 4.050782-.003906 7.542969-2.855469 8.355469-6.828125l6.925781-34.652344 14.808594 14.804688-9.816406 42.394531c-1.0625 4.589844 1.800781 9.175781 6.390625 10.238281h.011719c.628906.140625 1.273437.214844 1.917968.214844 3.972657-.003906 7.417969-2.746094 8.3125-6.613281l7.398438-32.0625 16.683594 16.691406-6.179688 26.761719c-1.0625 4.59375 1.796875 9.175781 6.390625 10.238281.003907 0 .007813 0 .011719.003906.632812.140625 1.277344.210938 1.925781.210938 3.96875 0 7.414063-2.738281 8.3125-6.605469l3.78125-16.375 19.285157 19.269531c3.464843 3.191407 8.863281 2.96875 12.054687-.5 3.007813-3.265625 3.007813-8.292969 0-11.558593l-19.273437-19.285157 16.367187-3.769531c4.59375-1.058594 7.460937-5.640625 6.402344-10.238281-1.058594-4.59375-5.640625-7.460938-10.234375-6.402344l-26.769532 6.183594-16.691406-16.699219 34.015625-7.816406c4.59375-1.058594 7.460938-5.640625 6.402344-10.234375s-5.640625-7.464844-10.234375-6.40625l-44.375 10.242187-14.796875-14.796875 34.644531-6.929687c4.609375-.988282 7.542969-5.527344 6.550782-10.136719-.96875-4.511719-5.355469-7.4375-9.894532-6.597656l-45.804687 9.15625-35.507813-35.507813 4.222656-2.449218c2.640626-1.523438 4.265626-4.339844 4.265626-7.386719v-21.351563h54.613281l25.882812 38.871094c2.617188 3.917969 7.914063 4.976562 11.835938 2.363281 3.921875-2.617187 4.980469-7.914062 2.363281-11.835937l-19.582031-29.398438h20.921875l23.09375 36.949219c2.496094 4.007813 7.769531 5.230469 11.773437 2.730469 4.007813-2.496094 5.230469-7.769532 2.730469-11.777344l-17.464844-27.902344h23.601563l14.558593 23.296875c2.496094 4.003907 7.769532 5.226563 11.777344 2.730469 4.003906-2.5 5.226563-7.769531 2.730469-11.777344l-8.980469-14.25h27.308594c4.714844 0 8.535156-3.820312 8.535156-8.535156-.003906-4.710938-3.824218-8.53125-8.539062-8.53125zm-204.269532 33.476562-43.195312 24.933594-43.203125-24.933594v-49.886718l43.203125-24.933594 43.195312 24.933594zm0 0"/></svg>