<svg height="512pt" viewBox="-13 0 512 512.0123" width="512pt" xmlns="http://www.w3.org/2000/svg"><path d="m421.125 115.71875c-12.074219-39.882812-54.191406-62.421875-94.074219-50.351562-6.902343 2.089843-13.46875 5.160156-19.503906 9.113281-8.078125-43.410157-49.820313-72.050781-93.230469-63.972657-37.742187 7.023438-65.164062 39.886719-65.320312 78.277344v27.359375c-33.953125 5.171875-57.285156 36.886719-52.113282 70.839844 4.597657 30.199219 30.449219 52.585937 60.996094 52.820313h257.621094c34.34375-.171876 62.046875-28.148438 61.878906-62.492188-.160156-31.929688-24.472656-58.546875-56.253906-61.59375zm0 0" fill="#b3e4e8"/><path d="m109.019531 346.40625c0 14.71875-11.933593 26.652344-26.652343 26.652344s-26.648438-11.933594-26.648438-26.652344 11.929688-26.648438 26.648438-26.648438 26.652343 11.929688 26.652343 26.648438zm0 0" fill="#ebebeb"/><path d="m.0078125 429.550781 44.4218755-53.289062 13.65625 11.378906-44.425782 53.292969zm0 0" fill="#b3e4e8"/><path d="m103.65625 305.183594 29.617188-35.53125 13.65625 11.382812-29.617188 35.53125zm0 0" fill="#8aced8"/><path d="m32.582031 485.820312 29.621094-35.527343 13.652344 11.382812-29.617188 35.527344zm0 0" fill="#a8d6da"/><path d="m201.371094 482.863281 29.617187-35.53125 13.652344 11.382813-29.617187 35.53125zm0 0" fill="#b3e4e8"/><path d="m79.957031 429.546875 133.277344-159.878906 13.65625 11.382812-133.28125 159.878907zm0 0" fill="#b3e4e8"/><path d="m248.75 429.558594 133.277344-159.878906 13.65625 11.378906-133.28125 159.882812zm0 0" fill="#a8d6da"/><path d="m215.621094 417.476562c0 14.71875-11.933594 26.648438-26.652344 26.648438s-26.648438-11.929688-26.648438-26.648438 11.929688-26.652343 26.648438-26.652343 26.652344 11.933593 26.652344 26.652343zm0 0" fill="#eaeae8"/><path d="m106.613281 500.628906 44.421875-53.289062 13.65625 11.382812-44.425781 53.289063zm0 0" fill="#8aced8"/><path d="m210.390625 376.148438 91.78125-106.621094 13.464844 11.589844-91.78125 106.621093zm0 0" fill="#b3e4e8"/><path d="m455.476562 337.523438c0 14.71875-11.933593 26.648437-26.652343 26.648437s-26.648438-11.929687-26.648438-26.648437 11.929688-26.652344 26.648438-26.652344 26.652343 11.933594 26.652343 26.652344zm0 0" fill="#eaeae8"/><path d="m344.433594 461.894531c0 14.71875-11.933594 26.648438-26.652344 26.648438s-26.648438-11.929688-26.648438-26.648438 11.929688-26.652343 26.648438-26.652343 26.652344 11.933593 26.652344 26.652343zm0 0" fill="#ebebeb"/><path d="m346.46875 420.683594 44.425781-53.289063 13.652344 11.378907-44.425781 53.292968zm0 0" fill="#b3e4e8"/><path d="m449.960938 296.53125 20.734374-26.636719 14.019532 10.914063-20.734375 26.636718zm0 0" fill="#a8d6da"/><path d="m348.875 53.25c-12.277344-.003906-24.40625 2.683594-35.535156 7.871094-15.320313-46.609375-65.523438-71.976563-112.132813-56.65625-36.429687 11.972656-61.0625 45.972656-61.097656 84.320312v20.09375c-37.964844 9.960938-60.664063 48.8125-50.703125 86.777344 8.171875 31.148438 36.269531 52.910156 68.472656 53.03125h257.621094c39.25-.0625 71.019531-31.929688 70.957031-71.179688-.054687-34.4375-24.792969-63.882812-58.707031-69.871093-12.324219-32.847657-43.796875-54.546875-78.875-54.386719zm119.925781 124.371094c-.027343 29.421875-23.875 53.269531-53.300781 53.300781h-257.621094c-29.4375-.242187-53.105468-24.300781-52.863281-53.734375.210937-26.164062 19.382813-48.304688 45.25-52.257812 4.371094-.628907 7.613281-4.375 7.613281-8.792969v-27.351563c.179688-39.25 32.140625-70.925781 71.390625-70.746094 34.097657.15625 63.277344 24.503907 69.539063 58.023438.867187 4.828125 5.484375 8.039062 10.3125 7.171875 1.179687-.210937 2.304687-.660156 3.304687-1.316406 30.738281-20.15625 71.996094-11.578125 92.152344 19.160156 3.492187 5.324219 6.199219 11.121094 8.042969 17.214844 1.050781 3.464843 4.097656 5.949219 7.703125 6.273437 27.515625 2.351563 48.609375 25.4375 48.476562 53.054688zm0 0"/><path d="m46.832031 346.40625c0 19.625 15.910157 35.535156 35.535157 35.535156s35.535156-15.910156 35.535156-35.535156-15.910156-35.535156-35.535156-35.535156-35.535157 15.910156-35.535157 35.535156zm35.535157-17.765625c9.8125 0 17.769531 7.953125 17.769531 17.765625s-7.957031 17.765625-17.769531 17.765625-17.765626-7.953125-17.765626-17.765625 7.953126-17.765625 17.765626-17.765625zm0 0"/><path d="m.0195312 429.550781 44.4179688-53.296875 13.65625 11.378906-44.417969 53.296876zm0 0"/><path d="m103.644531 305.171875 29.609375-35.535156 13.65625 11.378906-29.609375 35.535156zm0 0"/><path d="m32.578125 485.789062 29.609375-35.535156 13.652344 11.378906-29.605469 35.535157zm0 0"/><path d="m201.371094 482.863281 29.617187-35.53125 13.652344 11.382813-29.617187 35.53125zm0 0"/><path d="m79.976562 429.558594 133.257813-159.902344 13.65625 11.378906-133.257813 159.902344zm0 0"/><path d="m248.75 429.558594 133.277344-159.878906 13.65625 11.378906-133.28125 159.882812zm0 0"/><path d="m224.503906 417.476562c0-19.625-15.910156-35.535156-35.535156-35.535156s-35.53125 15.910156-35.53125 35.535156 15.90625 35.53125 35.53125 35.53125 35.535156-15.90625 35.535156-35.53125zm-53.300781 0c0-9.8125 7.953125-17.769531 17.765625-17.769531s17.769531 7.957031 17.769531 17.769531-7.957031 17.765626-17.769531 17.765626-17.765625-7.953126-17.765625-17.765626zm0 0"/><path d="m106.613281 500.628906 44.421875-53.289062 13.65625 11.382812-44.425781 53.289063zm0 0"/><path d="m210.378906 376.132812 91.792969-106.605468 13.464844 11.589844-91.792969 106.609374zm0 0"/><path d="m464.359375 337.523438c0-19.625-15.910156-35.535157-35.535156-35.535157s-35.53125 15.910157-35.53125 35.535157 15.90625 35.535156 35.53125 35.535156 35.535156-15.910156 35.535156-35.535156zm-53.300781 0c0-9.8125 7.953125-17.765626 17.765625-17.765626s17.769531 7.953126 17.769531 17.765626-7.957031 17.765624-17.769531 17.765624-17.765625-7.953124-17.765625-17.765624zm0 0"/><path d="m317.78125 497.425781c19.625 0 35.535156-15.90625 35.535156-35.53125s-15.910156-35.535156-35.535156-35.535156-35.535156 15.910156-35.535156 35.535156 15.910156 35.53125 35.535156 35.53125zm0-53.300781c9.8125 0 17.765625 7.957031 17.765625 17.769531s-7.953125 17.765625-17.765625 17.765625-17.765625-7.953125-17.765625-17.765625 7.953125-17.769531 17.765625-17.769531zm0 0"/><path d="m346.46875 420.683594 44.425781-53.289063 13.652344 11.378907-44.425781 53.292968zm0 0"/><path d="m449.957031 296.542969 20.722657-26.648438 14.027343 10.90625-20.722656 26.648438zm0 0"/></svg>