<svg height="150pt" viewBox="-30 0 512 512.01862" width="150pt" xmlns="http://www.w3.org/2000/svg"><path d="m328.574219 255.996094c0 56.550781-45.84375 102.398437-102.394531 102.398437-56.554688 0-102.398438-45.847656-102.398438-102.398437 0-56.550782 45.84375-102.394532 102.398438-102.394532 56.550781 0 102.394531 45.84375 102.394531 102.394532zm0 0" fill="#f3af3e"/><path d="m160.066406 281.597656c-3.886718-.003906-7.277344-2.632812-8.253906-6.394531-10.011719-38.832031 11.511719-78.835937 49.433594-91.878906 4.421875-1.621094 9.324218.648437 10.945312 5.074219 1.621094 4.425781-.652344 9.328124-5.078125 10.949218-.105469.039063-.214843.074219-.324219.109375-29.5 10.140625-46.246093 41.257813-38.457031 71.464844 1.183594 4.5625-1.554687 9.21875-6.117187 10.402344-.703125.179687-1.425782.273437-2.148438.273437zm0 0" fill="#da922a"/><path d="m206.226562 329.824219c-.84375 0-1.683593-.125-2.492187-.375-12.59375-3.84375-23.988281-10.867188-33.082031-20.394531-3.253906-3.410157-3.125-8.8125.28125-12.066407 3.410156-3.253906 8.8125-3.128906 12.066406.28125 7.0625 7.417969 15.910156 12.894531 25.703125 15.898438 4.507813 1.367187 7.058594 6.132812 5.691406 10.640625-1.09375 3.597656-4.40625 6.058594-8.167969 6.058594zm0 0" fill="#da922a"/><path d="m332.871094 184.804688 110.945312-63.816407 8.511719 14.792969-110.945313 63.816406zm0 0" fill="#f3af3e"/><path d="m217.867188 127.996094.253906-127.996094 17.066406.0351562-.253906 127.9921878zm0 0" fill="#f3af3e"/><path d="m.4375 134.996094 8.558594-14.761719 110.738281 64.1875-8.558594 14.765625zm0 0" fill="#f3af3e"/><path d="m.0078125 376.203125 110.9453125-63.816406 8.511719 14.792969-110.945313 63.816406zm0 0" fill="#f3af3e"/><path d="m217.191406 511.984375.253906-127.992187 17.066407.03125-.253907 127.996093zm0 0" fill="#f7ba61"/><path d="m332.644531 327.542969 8.554688-14.765625 110.742187 64.1875-8.558594 14.765625zm0 0" fill="#f3af3e"/><g fill="#fbd699"><path d="m282.761719 140.867188 38.390625-66.511719 14.78125 8.53125-38.390625 66.511719zm0 0"/><path d="m116.367188 82.910156 14.769531-8.53125 38.414062 66.5-14.773437 8.53125zm0 0"/><path d="m21.386719 247.488281h76.796875v17.066407h-76.796875zm0 0"/><path d="m116.429688 429.085938 38.390624-66.511719 14.78125 8.53125-38.390624 66.511719zm0 0"/><path d="m282.808594 371.074219 14.769531-8.53125 38.414063 66.496093-14.769532 8.535157zm0 0"/><path d="m354.171875 247.4375h76.796875v17.066406h-76.796875zm0 0"/></g><path d="m116.476562 239.964844c-8.855468 60.621094 33.105469 116.941406 93.726563 125.800781 60.621094 8.855469 116.941406-33.105469 125.800781-93.726563 8.855469-60.617187-33.105468-116.941406-93.726562-125.800781 0 0-.003906 0-.007813 0-60.152343-9.199219-116.375 32.105469-125.578125 92.257813-.074218.488281-.144531.980468-.214844 1.46875zm202.640626 29.601562c-7.492188 51.292969-55.144532 86.800782-106.441407 79.308594-51.292969-7.488281-86.804687-55.144531-79.3125-106.441406 7.492188-51.277344 55.117188-86.78125 106.398438-79.316406 51.277343 7.535156 86.777343 55.15625 79.355469 106.449218zm0 0"/><path d="m168.394531 270.945312c-7.792969-30.203124 8.953125-61.324218 38.457031-71.460937 4.46875-1.496094 6.878907-6.328125 5.386719-10.800781-1.496093-4.46875-6.332031-6.878906-10.800781-5.382813-.046875.015625-.09375.03125-.140625.046875-37.925781 13.039063-59.449219 53.050782-49.421875 91.882813 1.277344 4.535156 5.988281 7.175781 10.523438 5.898437 4.398437-1.238281 7.039062-5.71875 5.996093-10.164062zm0 0"/><path d="m208.761719 313.167969c-9.785157-2.988281-18.636719-8.449219-25.699219-15.855469-3.050781-3.59375-8.433594-4.035156-12.027344-.984375-3.59375 3.046875-4.035156 8.433594-.988281 12.027344.210937.246093.433594.480469.667969.699219 9.089844 9.527343 20.484375 16.550781 33.082031 20.394531.804687.25 1.640625.375 2.480469.375 4.714844.003906 8.539062-3.8125 8.542968-8.527344.003907-3.761719-2.457031-7.082031-6.058593-8.171875zm0 0"/><path d="m332.945312 184.796875 110.957032-63.804687 8.507812 14.792968-110.957031 63.804688zm0 0"/><path d="m217.925781 127.992188.257813-127.992188 17.066406.0351562-.257812 127.9921878zm0 0"/><path d="m.492188 134.988281 8.558593-14.765625 110.742188 64.191406-8.558594 14.765626zm0 0"/><path d="m.0703125 376.207031 110.9453125-63.816406 8.507813 14.792969-110.945313 63.816406zm0 0"/><path d="m217.25 511.984375.257812-127.992187 17.066407.03125-.257813 127.996093zm0 0"/><path d="m332.699219 327.550781 8.558593-14.765625 110.738282 64.1875-8.558594 14.765625zm0 0"/><path d="m282.816406 140.867188 38.390625-66.511719 14.78125 8.53125-38.390625 66.511719zm0 0"/><path d="m116.417969 82.921875 14.769531-8.535156 38.414062 66.5-14.769531 8.53125zm0 0"/><path d="m21.445312 247.488281h76.796876v17.066407h-76.796876zm0 0"/><path d="m116.484375 429.085938 38.390625-66.511719 14.78125 8.53125-38.390625 66.511719zm0 0"/><path d="m282.871094 371.070312 14.769531-8.53125 38.414063 66.496094-14.769532 8.535156zm0 0"/><path d="m354.230469 247.4375h76.796875v17.066406h-76.796875zm0 0"/></svg>